<svg height="492pt" viewBox="0 0 492 492.58958" width="492pt" xmlns="http://www.w3.org/2000/svg" xmlns:xlink="http://www.w3.org/1999/xlink"><linearGradient id="a" gradientUnits="userSpaceOnUse" x1="246.586902" x2="246.586902" y1="24.278156" y2="472.644156"><stop offset="0" stop-color="#00efd1"/><stop offset="1" stop-color="#00acea"/></linearGradient><path d="m421.808594 2.308594c-3.128906-3.089844-8.167969-3.078125-11.277344.035156-3.113281 3.109375-3.128906 8.148438-.035156 11.277344l11.640625 11.644531-34.210938 34.472656-24.136719-24.132812c-3.132812-3.066407-8.148437-3.039063-11.25.0625-3.097656 3.097656-3.125 8.113281-.0625 11.25l11.050782 11.050781-112.167969 112.464844c-9.113281 9.164062-11.1875 23.199218-5.113281 34.609375l-16.273438 16.273437c-9.285156 9.308594-11.273437 23.644532-4.871094 35.128906l-2.0625 2.066407c-13.542968-14.054688-32.648437-21.339844-52.109374-19.867188-11.144532.832031-55.992188 12.027344-69.125 15.402344-4.417969-2.183594-8.667969-4.679687-12.71875-7.476563-5.734376-3.789062-11.152344-7.371093-17.769532-7.890624-19.53125-1.542969-38.730468 5.691406-52.386718 19.738281s-20.351563 33.445312-18.257813 52.921875c3.792969 34.507812 16.71875 103.089844 60.714844 174.714844 2.765625 4.507812 7.957031 6.925781 13.1875 6.140624 5.234375-.785156 9.488281-4.621093 10.8125-9.742187l4.554687-17.664063c4.5625-17.628906 13.578125-33.789062 26.183594-46.929687l1.519531-1.582031c.902344-.933594 2.390625-.96875 3.335938-.070313l1.839843 1.761719c13.789063 13.195312 23.761719 29.863281 28.863282 48.253906l4.632812 16.710938c1.40625 5.050781 5.667969 8.792968 10.863282 9.527344 5.191406.730468 10.328124-1.683594 13.074218-6.152344 44.132813-71.761719 57.078125-140.460938 60.871094-175.03125 1.523438-13.835938-1.410156-27.800782-8.375-39.855469l3.667969-3.664063c11.480469 6.402344 25.820312 4.417969 35.128906-4.867187l16.273437-16.277344c11.410157 6.070313 25.441407 4 34.609376-5.113281l112.464843-112.167969 11.050781 11.050781c2.015626 2.058594 4.976563 2.878907 7.761719 2.140626 2.785157-.734376 4.957031-2.90625 5.695313-5.691407.734375-2.785156-.085938-5.75-2.144532-7.761719l-23.828124-23.832031 34.210937-34.472656 11.601563 11.601563c3.128906 3.089843 8.167968 3.074218 11.277343-.035157 3.113281-3.113281 3.128907-8.152343.035157-11.28125zm-196.585938 307.230468c-3.546875 32.332032-15.4375 95.761719-55.238281 162.820313l-2.886719-10.414063c-5.871094-21.164062-17.347656-40.355468-33.21875-55.542968l-1.84375-1.761719c-7.320312-6.984375-18.910156-6.738281-25.933594.550781l-1.515624 1.585938c-14.511719 15.125-24.886719 33.726562-30.136719 54.015625l-2.882813 11.167969c-39.582031-66.867188-51.445312-130.113282-54.992187-162.367188-1.570313-14.738281 3.503906-29.414062 13.839843-40.035156 10.339844-10.625 24.867188-16.09375 39.644532-14.925782 2.5.199219 5.902344 2.441407 10.207031 5.285157 12.882813 8.511719 32.34375 21.375 76.5625 15.847656 2.851563-.335937 5.304687-2.175781 6.425781-4.820313 1.125-2.640624.742188-5.683593-.996094-7.96875-1.738281-2.285156-4.566406-3.464843-7.414062-3.089843-5.167969.648437-9.925781 1.015625-14.320312 1.152343 13.917968-3.25 27.125-6.101562 31.597656-6.4375 14.734375-1.109374 29.191406 4.410157 39.4375 15.054688.054687.058594.105468.117188.160156.175781l-42.875 42.875c-2.058594 2.011719-2.875 4.976563-2.140625 7.757813.734375 2.785156 2.910156 4.960937 5.691406 5.695312 2.785157.734375 5.75-.082031 7.761719-2.140625l40.753906-40.753906c3.8125 8.199219 5.300782 17.285156 4.3125 26.273437zm35.007813-57.960937c-5.257813 5.0625-13.605469 4.984375-18.765625-.179687-5.164063-5.160157-5.242188-13.507813-.179688-18.765626l15.375-15.378906 18.949219 18.949219zm50.902343-21.398437c-5.238281 5.210937-13.703124 5.203124-18.933593-.011719l-29.5-29.5c-5.21875-5.234375-5.222657-13.699219-.011719-18.9375l59.796875-59.953125 48.601563 48.601562zm71.28125-71.101563-48.632812-48.628906 41.0625-41.167969 48.742188 48.738281zm39.699219-65.152344-22.875-22.875 34.210938-34.472656 22.878906 22.878906zm0 0" fill="url(#a)"/></svg>