<svg height="424pt" viewBox="-5 0 424 424.265" width="424pt" xmlns="http://www.w3.org/2000/svg" xmlns:xlink="http://www.w3.org/1999/xlink"><linearGradient id="a"><stop offset="0" stop-color="#00efd1"/><stop offset="1" stop-color="#00acea"/></linearGradient><linearGradient id="b" gradientUnits="userSpaceOnUse" x1="207.901182" x2="207.901182" xlink:href="#a" y1="4.133" y2="432.922"/><linearGradient id="c" gradientUnits="userSpaceOnUse" x1="295.694182" x2="295.694182" xlink:href="#a" y1="4.133" y2="432.922"/><path d="m295.699219 0c-57.777344.078125-107.328125 41.253906-117.980469 98.039062-18.269531 4.308594-35.777344 8.699219-43.964844 10.816407-6.40625-3.0625-12.5625-6.628907-18.402344-10.664063-7.734374-5.113281-14.410156-9.523437-22.609374-10.167968-25.464844-2.011719-50.503907 7.421874-68.308594 25.734374-17.808594 18.316407-26.535156 43.609376-23.8125 69.007813 5.078125 46.214844 22.402344 138.074219 81.324218 234.019531 3.144532 5.121094 9.046876 7.867188 14.988282 6.976563s10.773437-5.246094 12.277344-11.066407l6.136718-23.773437c6.257813-24.191406 18.628906-46.367187 35.925782-64.394531l2.046874-2.132813c2.277344-2.363281 6.03125-2.441406 8.402344-.179687l2.476563 2.371094c18.921875 18.105468 32.601562 40.980468 39.601562 66.214843l6.238281 22.492188c1.800782 6.484375 7.703126 10.96875 14.433594 10.972656 5.203125 0 10.03125-2.699219 12.757813-7.132813 33.625-54.945312 57.976562-115.050781 72.066406-177.910156 63.207031-7.222656 109.792969-62.519531 106.183594-126.035156-3.613281-63.515625-56.164063-113.1757812-119.78125-113.1875zm-119.886719 114.933594c-.046875 1.050781-.074219 2.105468-.089844 3.164062-3.554687-.121094-6.921875-.359375-10.101562-.707031 3.292968-.800781 6.710937-1.625 10.191406-2.457031zm49.015625 291.808594-5.609375-20.21875c-7.769531-28.011719-22.957031-53.402344-43.960938-73.5l-2.476562-2.371094c-8.753906-8.347656-22.609375-8.054688-31 .65625l-2.050781 2.132812c-19.203125 20.015625-32.933594 44.628906-39.878907 71.480469l-5.53125 21.433594c-56.289062-92.539063-72.898437-180.785157-77.800781-225.339844-2.203125-20.660156 4.90625-41.226563 19.394531-56.121094 14.488282-14.890625 34.855469-22.558593 55.566407-20.921875 4.082031.320313 8.917969 3.515625 15.046875 7.566406 13.207031 8.726563 32.757812 21.625 70.003906 22.597657 7.105469 59.222656 56.566406 104.269531 116.191406 105.824219-13.664062 58.839843-36.582031 115.132812-67.894531 166.785156zm70.871094-182.742188c-54.53125-.066406-99.773438-42.191406-103.734375-96.574219.074218-.460937.109375-.929687.101562-1.394531-.015625-.660156-.109375-1.3125-.285156-1.949219-.054688-1.355469-.085938-2.714843-.085938-4.082031 0-57.4375 46.5625-104 104-104s104 46.5625 104 104-46.5625 104-104 104zm0 0" fill="url(#b)"/><path d="m368.46875 94.742188c-4.59375-22.769532-21.226562-37.480469-42.375-37.480469-9.773438 0-20.167969 3.339843-30.328125 9.699219-10.285156-6.65625-20.566406-10.027344-30.636719-10.027344-21.285156 0-37.859375 14.875-42.226562 37.886718-6.058594 31.589844 12.675781 73.328126 68.1875 95.355469.140625.054688.277344.101563.417968.148438 2.703126.992187 5.667969.992187 8.371094 0 .160156-.050781.316406-.109375.472656-.171875 55.484376-22.480469 74.199219-64.089844 68.128907-95.351563zm-72.789062 80.03125c-46-18.753907-61.835938-52.054688-57.058594-76.957032 2.910156-15.351562 13.066406-24.882812 26.507812-24.882812 7.972656 0 16.886719 3.503906 25.78125 10.140625 2.808594 2.097656 6.652344 2.121093 9.488282.058593 8.898437-6.460937 17.789062-9.875 25.699218-9.875 13.386719 0 23.613282 9.433594 26.683594 24.621094 4.75 24.589844-11.097656 57.753906-57.101562 76.894532zm0 0" fill="url(#c)"/></svg>