<?xml version="1.0"?>
<svg xmlns="http://www.w3.org/2000/svg" xmlns:xlink="http://www.w3.org/1999/xlink" viewBox="0 0 512 512" width="512" height="512"><linearGradient id="a" gradientUnits="userSpaceOnUse" x1="256" x2="256" y1="2" y2="505.874"><stop offset="0" stop-color="#00efd1"/><stop offset="1" stop-color="#00acea"/></linearGradient><linearGradient id="b" x1="187.946" x2="187.946" xlink:href="#a" y1="2" y2="505.874"/><linearGradient id="c" x1="324.054" x2="324.054" xlink:href="#a" y1="2" y2="505.874"/><path d="m439.221 235.045c-.2 0-.4 0-.593 0-9.041-33.459-29.415-64.121-58.062-87.105-29.509-23.675-66.933-38.427-106.024-41.908-11.9-30.052-41.194-50.495-73.508-50.495a78.764 78.764 0 0 0 -26.98 4.949 10 10 0 0 0 0 18.793c16 5.821 28.035 17.033 34.16 31.482a192.194 192.194 0 0 0 -85.514 44.632c-24.335 22.169-41.265 49.553-49.338 79.656-.194 0-.387 0-.582 0a48.843 48.843 0 0 0 0 97.685 49.6 49.6 0 0 0 5.916-.35c12.209 31.252 34.659 59.145 63.974 79.253 32.839 22.522 72.03 34.428 113.33 34.428s80.491-11.906 113.331-34.432c29.315-20.108 51.765-48 63.974-79.253a49.6 49.6 0 0 0 5.916.35 48.843 48.843 0 0 0 0-97.685zm0 77.685a27.218 27.218 0 0 1 -9.039-1.476 10 10 0 0 0 -12.828 6.35c-9.9 30.546-30.975 58.083-59.335 77.537-29.5 20.231-64.773 30.924-102.019 30.924s-72.523-10.693-102.019-30.924c-28.36-19.454-49.432-46.991-59.335-77.537a10 10 0 0 0 -12.828-6.35 27.218 27.218 0 0 1 -9.039 1.476 28.843 28.843 0 0 1 0-57.685 29.355 29.355 0 0 1 6.165.665 10 10 0 0 0 11.9-7.748c6.091-29.424 21.763-56.32 45.325-77.784 23.719-21.607 53.689-36.139 86.672-42.025a10 10 0 0 0 8-12.016 74.815 74.815 0 0 0 -23.734-40.271 59.928 59.928 0 0 1 50.557 42.514 10 10 0 0 0 9.032 7.139c37.382 2.077 73.376 15.581 101.351 38.025 27.54 22.1 46.4 52.077 53.106 84.421a10 10 0 0 0 11.9 7.745 29.355 29.355 0 0 1 6.165-.665 28.843 28.843 0 0 1 0 57.685z" fill="url(#a)"/><path d="m218.886 252.06a30.94 30.94 0 1 0 -30.94 30.94 30.974 30.974 0 0 0 30.94-30.94zm-41.879 0a10.94 10.94 0 1 1 10.939 10.94 10.951 10.951 0 0 1 -10.939-10.94z" fill="url(#b)"/><path d="m324.054 221.12a30.94 30.94 0 1 0 30.939 30.94 30.974 30.974 0 0 0 -30.939-30.94zm0 41.879a10.94 10.94 0 1 1 10.939-10.939 10.951 10.951 0 0 1 -10.939 10.94z" fill="url(#c)"/><path d="m256 374.362a59.258 59.258 0 0 1 -59.362-59.362h-20a79.362 79.362 0 0 0 158.724 0h-20a59.258 59.258 0 0 1 -59.362 59.362z" fill="url(#a)"/></svg>
